<svg width="165" height="18" viewBox="0 0 165 18" fill="none" xmlns="http://www.w3.org/2000/svg">
    <path d="M18.6642 10.2046C18.7568 9.80427 18.8185 9.37311 18.8493 8.97275C18.9111 8.54159 18.9419 8.14123 18.9419 7.74086C18.9419 6.72456 18.7568 5.83144 18.3865 5.03072V4.99992C17.7076 3.58325 16.2882 2.62854 14.7145 2.44376C14.5911 2.44376 14.4676 2.41296 14.3442 2.41296C13.5111 2.41296 12.6779 2.50536 11.7522 2.93651C11.2276 3.18289 10.4871 3.76804 10.0859 4.1992C9.71565 4.63036 9.40707 5.06151 9.12936 5.55427C8.85165 6.01623 8.63565 6.50898 8.41965 7.00173C8.20365 7.49449 8.04936 7.98724 7.86422 8.47999L7.70993 8.91115C7.61736 9.12673 7.52479 9.4963 7.37051 9.98905C7.21622 10.4818 7.03108 11.1901 6.72251 12.0833C6.59908 12.4836 6.41394 12.884 6.16708 13.2843C5.92022 13.6847 5.54994 13.9311 5.11794 14.0543C5.27222 13.6847 5.36479 13.3459 5.36479 13.0072C5.36479 12.3296 5.14879 11.7753 4.68594 11.3133C4.22308 10.8822 3.66765 10.6358 2.9888 10.6358C2.5568 10.6358 2.15566 10.7282 1.78537 10.913C1.41509 11.0977 1.10651 11.3133 0.859658 11.6213C0.612801 11.8985 0.396801 12.2372 0.273373 12.6376C0.119087 13.0688 0.057373 13.4691 0.057373 13.8695C0.057373 14.3314 0.149944 14.7318 0.335087 15.1322C0.52023 15.5325 0.736229 15.8713 1.0448 16.1485C1.35337 16.4564 1.6928 16.672 2.09394 16.826C2.49508 16.98 2.92708 17.0724 3.35908 17.0724C4.09965 17.0724 4.74765 16.9492 5.27222 16.672C5.79679 16.3948 6.22879 16.0253 6.59908 15.5941C6.96936 15.163 7.24708 14.6394 7.49393 14.0543C7.74079 13.4691 7.95679 12.884 8.14193 12.2372H13.1716L12.7088 14.5778L10.8882 14.7318L10.1476 17.0416C12.0299 16.7952 13.9431 16.7028 15.8562 16.7028C16.5968 16.7028 17.3373 16.7028 18.0471 16.7336C18.7876 16.7644 19.4973 16.7952 20.2379 16.8876L20.8859 14.1159L17.8311 14.3314L18.6642 10.2046ZM13.8505 8.88036C13.7888 9.34231 13.6962 9.80427 13.6036 10.2662H8.75908C8.91336 9.74267 9.0985 9.15753 9.3145 8.51079C9.5305 7.86405 9.80822 7.21731 10.1168 6.60137C10.4254 5.98543 10.7956 5.43108 11.2276 4.96912C11.6596 4.47637 12.1534 4.1684 12.7705 3.98362C13.2334 4.41478 13.5419 4.96912 13.7271 5.58507C13.8814 6.23181 13.9739 6.84775 13.9739 7.46369C13.9431 7.95644 13.9122 8.4184 13.8505 8.88036Z" fill="black"/>
    <path d="M29.6176 7.77109C29.2782 7.55551 28.9079 7.40153 28.4759 7.30914C28.0439 7.21675 27.6119 7.15515 27.1491 7.15515C26.6245 7.15515 26.0691 7.21675 25.5445 7.33993C25.0199 7.46312 24.5262 7.6787 24.0942 7.95588C23.6622 8.23305 23.3228 8.60262 23.0451 9.00298C22.7673 9.43414 22.6439 9.92689 22.6439 10.512C22.6439 11.0972 22.7982 11.5899 23.1068 11.9595C23.4153 12.3599 23.7548 12.6986 24.1251 13.0066C24.4953 13.3146 24.8348 13.5917 25.1433 13.8689C25.4519 14.1461 25.6062 14.4233 25.6062 14.7312C25.6062 14.9776 25.5136 15.1624 25.3285 15.3164C25.1433 15.4704 24.9273 15.532 24.6805 15.532C24.4645 15.532 24.3102 15.4396 24.1251 15.2856C24.1868 15.1624 24.1868 15.0392 24.1868 14.8852C24.1868 14.5157 24.0633 14.2077 23.7856 13.8997C23.5079 13.6225 23.1993 13.4686 22.8291 13.4686C22.4588 13.4686 22.1502 13.5917 21.9651 13.8381C21.7491 14.0845 21.6565 14.3925 21.6565 14.762C21.6565 15.1316 21.7799 15.4704 22.0268 15.7167C22.2736 15.9631 22.5513 16.1787 22.8908 16.3327C23.2302 16.4867 23.5696 16.6099 23.9708 16.6715C24.3411 16.7331 24.6805 16.7638 24.9273 16.7638C25.5445 16.7638 26.1308 16.7331 26.6862 16.6407C27.2416 16.5483 27.7353 16.3943 28.1365 16.1787C28.5376 15.9631 28.8771 15.6552 29.1239 15.2856C29.3708 14.916 29.4942 14.4541 29.4942 13.8997C29.4942 13.3454 29.3399 12.8834 29.0005 12.483C28.7536 12.1751 28.4142 11.8363 28.0131 11.5283C27.6428 11.2204 27.2725 10.9124 26.9331 10.6044C26.5936 10.2965 26.4393 9.95769 26.4393 9.58812C26.4393 9.28015 26.5628 9.00298 26.7788 8.7874C26.9948 8.57182 27.3033 8.44863 27.6428 8.44863C27.8588 8.44863 28.0439 8.51022 28.2291 8.60262C28.3833 8.7258 28.4759 8.87979 28.4759 9.12617C28.4759 9.28015 28.4142 9.43414 28.3216 9.55733C28.1982 9.68051 28.1673 9.8653 28.1673 10.0809C28.1673 10.3888 28.2908 10.666 28.5068 10.9124C28.7228 11.1588 29.0005 11.282 29.3399 11.282C29.5559 11.282 29.7411 11.2204 29.9262 11.128C30.1113 11.0356 30.2348 10.8816 30.3582 10.7276C30.4816 10.5736 30.5742 10.3888 30.6051 10.1733C30.6668 9.95769 30.6976 9.77291 30.6976 9.55733C30.6976 9.15696 30.6051 8.8182 30.3891 8.51022C30.2039 8.23305 29.9571 7.95588 29.6176 7.77109Z" fill="black"/>
    <path d="M37.0237 8.29474C36.8077 8.04837 36.5609 7.83279 36.2523 7.7096C35.9437 7.58641 35.6351 7.49402 35.2649 7.49402C34.802 7.49402 34.37 7.58641 33.9997 7.7404C33.6294 7.89438 33.29 8.10996 32.9814 8.35634C32.6729 8.60271 32.3951 8.91069 32.1483 9.24945C31.9014 9.58822 31.6546 9.92699 31.4077 10.2966L32.2717 10.8201C32.3026 10.7585 32.3643 10.6661 32.426 10.5737C32.4877 10.4813 32.5494 10.3889 32.642 10.2658C32.7346 10.1734 32.8271 10.081 32.8889 10.0194C32.9814 9.95779 33.074 9.92699 33.1666 9.92699C33.29 9.92699 33.3517 9.98858 33.3826 10.081C33.4134 10.2042 33.4443 10.2966 33.4443 10.3581C33.4443 10.4813 33.4443 10.5737 33.4134 10.6969C33.3826 10.8201 33.3517 10.9125 33.3209 11.0357L31.8706 16.456H36.0671L37.5791 10.8509C37.6408 10.6353 37.6717 10.4197 37.6717 10.1426C37.6717 9.8038 37.61 9.46503 37.4866 9.15706C37.394 8.81829 37.2397 8.54112 37.0237 8.29474Z" fill="black"/>
    <path d="M51.9894 13.3766C51.8969 13.4998 51.8043 13.623 51.6809 13.7461C51.5574 13.8693 51.4649 13.9617 51.3414 14.0541C51.218 14.1465 51.0946 14.1773 51.002 14.1773C50.8786 14.1773 50.7551 14.1465 50.6934 14.0541C50.6009 13.9617 50.57 13.8693 50.57 13.7461C50.57 13.6845 50.57 13.6537 50.6009 13.5922C50.6317 13.5306 50.6317 13.4998 50.6626 13.4382L52.1129 7.8639H47.9163L47.6694 8.66462C47.33 8.32585 46.9289 8.07948 46.466 7.89469C46.0032 7.74071 45.5403 7.64832 45.0774 7.64832C44.3369 7.64832 43.5963 7.7715 42.8866 8.04868C42.1769 8.32585 41.5597 8.69542 41.0043 9.15737C40.4489 9.65013 40.0169 10.2045 39.7083 10.8512C39.3689 11.498 39.2146 12.2371 39.2146 13.0378C39.2146 13.5306 39.3072 14.0233 39.5232 14.4545C39.7392 14.8856 39.986 15.286 40.3255 15.594C40.6649 15.9019 41.066 16.1791 41.5289 16.3639C41.9917 16.5487 42.4546 16.6411 42.9792 16.6411C43.6889 16.6411 44.3986 16.4871 45.0466 16.2099C45.6946 15.9019 46.2809 15.5016 46.7746 14.978C46.9906 15.3784 47.2683 15.748 47.6694 16.0251C48.0397 16.3023 48.4717 16.4563 48.9654 16.4563C49.4283 16.4563 49.8603 16.3947 50.2923 16.2407C50.7243 16.0867 51.1563 15.9019 51.5266 15.6556C51.8969 15.4092 52.2671 15.1012 52.5757 14.7624C52.8843 14.4237 53.162 14.0541 53.4089 13.6845L52.3289 13.0378C52.1437 13.1302 52.082 13.2534 51.9894 13.3766ZM46.466 13.007C46.3734 13.2842 46.25 13.4998 46.0957 13.7153C45.9106 13.9309 45.6946 14.0233 45.386 14.0233C45.0157 14.0233 44.738 13.8693 44.5529 13.5614C44.3677 13.2534 44.2443 12.9454 44.2443 12.6066C44.2443 12.3295 44.2752 12.0215 44.3677 11.6827C44.4603 11.344 44.5837 11.036 44.738 10.7588C44.8923 10.4816 45.1083 10.2353 45.3552 10.0197C45.602 9.83491 45.9106 9.71172 46.2192 9.71172C46.4352 9.71172 46.6203 9.77332 46.8054 9.8965C46.9597 10.0197 47.0832 10.2045 47.114 10.4201L46.466 13.007Z" fill="black"/>
    <path d="M63.4995 7.61724C63.1292 7.61724 62.7898 7.67884 62.4195 7.80203C62.0492 7.92521 61.7098 8.0792 61.3704 8.29478C61.0309 8.51036 60.7532 8.72594 60.4755 9.00311C60.1978 9.28029 59.9818 9.55746 59.7658 9.86543C59.7349 9.55746 59.6424 9.24949 59.5189 8.97232C59.3955 8.69514 59.2104 8.41797 58.9944 8.20239C58.7784 7.98681 58.5315 7.80203 58.2538 7.64804C57.9761 7.52485 57.6675 7.46326 57.3281 7.46326C56.8652 7.46326 56.4332 7.55565 56.0629 7.70963C55.6927 7.86362 55.3532 8.0792 55.0447 8.32558C54.7361 8.57195 54.4584 8.87992 54.2115 9.21869C53.9647 9.55746 53.7178 9.89623 53.4709 10.2658L54.3349 10.7893C54.3658 10.7277 54.4275 10.6354 54.4892 10.543C54.5509 10.4506 54.6127 10.3582 54.7052 10.235C54.7978 10.1426 54.8904 10.0502 54.9521 9.98862C55.0447 9.92703 55.1372 9.89623 55.2298 9.89623C55.3532 9.89623 55.4458 9.95782 55.4767 10.0502C55.5075 10.1734 55.5384 10.2658 55.5384 10.3274C55.5384 10.4506 55.5384 10.543 55.5075 10.6662C55.4767 10.7893 55.4458 10.8817 55.4149 11.0049L53.9647 16.4252H58.1612L59.2104 12.514C59.2721 12.3292 59.3338 12.1444 59.4572 11.9596C59.5806 11.7749 59.7041 11.5901 59.8584 11.4053C60.0127 11.2513 60.1669 11.0973 60.3521 11.0049C60.5372 10.8817 60.7224 10.8509 60.9075 10.8509C61.2161 10.8509 61.4629 10.9741 61.5864 11.1897C61.7406 11.4053 61.8024 11.6517 61.8024 11.9288C61.8024 12.0828 61.7715 12.2368 61.7406 12.3908C61.7098 12.5448 61.6789 12.6988 61.6172 12.822L60.6298 16.4252H64.8264L65.8755 12.6064C66.0606 11.9288 66.1532 11.2205 66.1532 10.4814C66.1532 9.64985 65.9064 8.97231 65.4435 8.41797C65.0115 7.89442 64.3635 7.61724 63.4995 7.61724Z" fill="black"/>
    <path d="M85.1296 4.59925C83.957 6.2007 82.9079 7.86374 81.9205 9.61917C81.8279 9.342 81.7353 9.03403 81.6427 8.72606C81.581 8.47968 81.5193 8.2333 81.4576 7.98693C81.3959 7.77135 81.3342 7.52497 81.3033 7.30939C81.2725 7.2478 81.2725 7.15541 81.2416 7.09381C81.0565 6.23149 80.9639 5.36917 80.9639 4.50686C80.9639 3.86012 81.0565 3.24417 81.2416 2.72062C81.4267 2.16628 81.6427 1.61193 81.9205 1.02678C81.9205 1.02678 81.9205 1.02678 81.9205 0.995986C81.6427 0.872797 81.3959 0.780406 81.149 0.657218C80.9022 0.534029 80.6553 0.410841 80.4085 0.256855C79.5445 0.903594 78.8039 1.64272 78.2793 2.53584C77.7239 3.39816 77.261 4.32207 76.9216 5.27678C76.5822 6.23149 76.2736 7.217 76.0268 8.20251C75.7799 9.18801 75.533 10.1119 75.2862 11.005C75.0393 11.8674 74.7308 12.6681 74.3913 13.3764C74.0519 14.054 73.6199 14.5775 73.0953 14.9779C73.3113 14.7315 73.4965 14.4543 73.6199 14.1463C73.7742 13.8076 73.8359 13.4688 73.8359 13.0992C73.8359 12.6681 73.7433 12.2985 73.589 11.929C73.4348 11.5902 73.1879 11.2822 72.9102 11.005C72.6325 10.7279 72.293 10.5431 71.9228 10.3891C71.5525 10.2351 71.1513 10.1735 70.7502 10.1735C70.2873 10.1735 69.8245 10.2659 69.4233 10.4507C69.0222 10.6355 68.6519 10.8819 68.3125 11.1898C68.0039 11.4978 67.7262 11.8674 67.5719 12.2677C67.3868 12.6989 67.2942 13.13 67.2942 13.592C67.2942 14.1156 67.3868 14.5775 67.6028 15.0087C67.7879 15.4398 68.0656 15.7786 68.405 16.0866C68.7445 16.3945 69.1456 16.6101 69.5776 16.7949C70.0096 16.9489 70.4725 17.0413 70.997 17.0413C72.1079 17.0413 73.0028 16.7949 73.6816 16.3021C74.3913 15.8094 74.9468 15.1627 75.3788 14.3927C75.8108 13.6228 76.181 12.7913 76.4279 11.8674C76.6748 10.9434 76.9216 10.0503 77.1376 9.21881C77.4462 10.1735 77.693 11.159 77.8165 12.1445C77.9708 13.13 78.0325 14.1463 78.0325 15.1319C78.0325 15.409 78.0325 15.6862 78.0325 15.9634C78.0325 16.2406 78.0016 16.5177 78.0016 16.7949H79.853C80.5936 15.1319 81.3959 13.4688 82.229 11.8674C83.0622 10.2659 83.9879 8.69526 85.0062 7.15541L83.4325 15.0087L81.9205 15.1627L81.6427 17.1337C82.3525 17.0105 83.093 16.9489 83.8027 16.8873C84.5125 16.8257 85.253 16.8257 85.9936 16.8257C86.549 16.8257 87.1353 16.8257 87.6907 16.8565C88.277 16.8873 88.8325 16.9181 89.3879 17.0105L89.6656 14.8547L88.1227 15.0087L89.3262 8.2333C89.4496 7.58657 89.573 6.90903 89.6656 6.26229C89.7582 5.61555 89.8816 4.96881 90.0667 4.29128C90.1902 3.76772 90.3445 3.24417 90.4987 2.72062C90.653 2.19707 90.8073 1.70432 90.9925 1.18077L89.0793 0.133667C87.5982 1.51954 86.2713 2.9978 85.1296 4.59925Z" fill="black"/>
    <path d="M97.9043 13.1918C98.3363 13.1918 98.7683 13.1302 99.2003 13.0071C99.6323 12.8839 100.064 12.6991 100.435 12.4527C100.805 12.2063 101.113 11.8984 101.329 11.5596C101.576 11.19 101.669 10.7897 101.669 10.3277C101.669 9.83495 101.545 9.373 101.299 9.00343C101.052 8.60307 100.743 8.2951 100.342 8.01792C99.9717 7.74075 99.5397 7.55597 99.0769 7.40198C98.614 7.248 98.1512 7.1864 97.7192 7.1864C96.9169 7.1864 96.1455 7.30959 95.4049 7.52517C94.6643 7.74075 93.9855 8.11031 93.3992 8.63387C92.8438 9.12662 92.3809 9.71176 92.0723 10.3893C91.7329 11.0668 91.5786 11.7752 91.5786 12.5143C91.5786 13.2226 91.7329 13.8694 92.0106 14.4237C92.2883 14.9781 92.6586 15.44 93.1523 15.8096C93.6152 16.1792 94.1706 16.4563 94.7877 16.6411C95.4049 16.8259 96.022 16.9183 96.7009 16.9183C97.5957 16.9183 98.4289 16.8259 99.1695 16.6103C99.91 16.3947 100.681 16.0868 101.453 15.6864L100.743 14.085C100.311 14.3313 99.8792 14.5469 99.4472 14.7009C99.0152 14.8549 98.5523 14.9473 98.0586 14.9473C97.3797 14.9473 96.8552 14.7625 96.4849 14.3621C96.1146 13.9618 95.8986 13.4382 95.8677 12.7915C96.1763 12.9455 96.5157 13.0379 96.8552 13.0994C97.1946 13.161 97.5649 13.1918 97.9043 13.1918ZM96.5157 11.498C96.4232 11.3132 96.3615 11.1284 96.3615 10.9436C96.3615 10.7897 96.3923 10.6049 96.4232 10.3585C96.4849 10.1121 96.5466 9.89655 96.6392 9.68097C96.7317 9.46539 96.8552 9.2806 97.0095 9.12662C97.1637 8.97263 97.3489 8.88024 97.5649 8.88024C97.8117 8.88024 97.966 9.00343 98.0277 9.21901C98.1203 9.43459 98.1512 9.65017 98.1512 9.83495C98.1512 10.0197 98.1203 10.2045 98.0895 10.4201C98.0586 10.6357 97.9969 10.8513 97.9043 11.0668C97.8117 11.2824 97.6883 11.4364 97.534 11.5596C97.3797 11.6828 97.1946 11.7444 96.9477 11.7444C96.7626 11.7752 96.6083 11.6828 96.5157 11.498Z" fill="black"/>
    <path d="M110.125 2.81331C110.002 2.50534 109.848 2.19737 109.632 1.95099C109.416 1.70462 109.169 1.48904 108.86 1.36585C108.552 1.21186 108.243 1.15027 107.873 1.15027C107.41 1.15027 107.009 1.24266 106.639 1.39665C106.268 1.55063 105.929 1.76621 105.589 2.01259C105.281 2.25896 105.003 2.56694 104.725 2.9057C104.479 3.24447 104.232 3.61404 104.016 3.9528L104.849 4.41476C104.88 4.35317 104.941 4.26078 105.003 4.13759C105.065 4.0144 105.157 3.92201 105.25 3.79882C105.343 3.70643 105.435 3.61404 105.528 3.52165C105.62 3.42925 105.713 3.39846 105.836 3.39846C105.96 3.39846 106.021 3.46005 106.052 3.58324C106.083 3.70643 106.083 3.82962 106.083 3.92201C106.083 4.10679 106.052 4.26078 106.021 4.47636L105.25 7.40208L102.812 16.4256H107.009L109.354 7.64846L110.187 4.53795C110.249 4.32237 110.28 4.10679 110.28 3.82962C110.311 3.49085 110.249 3.15208 110.125 2.81331Z" fill="black"/>
    <path d="M119.198 8.57202C118.796 8.20246 118.303 7.92528 117.716 7.7097C117.161 7.52492 116.544 7.40173 115.927 7.40173C115.186 7.40173 114.477 7.52492 113.798 7.7405C113.119 7.98688 112.502 8.32565 112.008 8.75681C111.483 9.18797 111.082 9.74231 110.774 10.3583C110.465 10.9742 110.311 11.6825 110.311 12.4833C110.311 13.13 110.434 13.7459 110.65 14.2695C110.866 14.793 111.206 15.255 111.607 15.6246C112.008 15.9941 112.502 16.2713 113.057 16.4869C113.613 16.6717 114.199 16.7949 114.847 16.7949C115.587 16.7949 116.328 16.6717 117.007 16.4561C117.686 16.2405 118.303 15.9017 118.827 15.4706C119.352 15.0394 119.784 14.5159 120.092 13.8999C120.401 13.284 120.555 12.5756 120.555 11.7749C120.555 11.1282 120.432 10.5122 120.185 9.98869C119.938 9.40355 119.599 8.94159 119.198 8.57202ZM118.056 12.4833C117.963 12.7604 117.84 13.0068 117.686 13.2224C117.531 13.438 117.346 13.6227 117.099 13.7767C116.883 13.9307 116.636 13.9923 116.359 13.9923C115.865 13.9923 115.464 13.8383 115.186 13.4996C114.909 13.1608 114.754 12.7604 114.754 12.2677C114.754 12.0213 114.816 11.7441 114.909 11.4977C115.001 11.2206 115.124 11.005 115.31 10.7894C115.464 10.5738 115.68 10.4199 115.927 10.2659C116.174 10.1427 116.42 10.0811 116.729 10.0811C117.192 10.0811 117.562 10.2659 117.809 10.6046C118.056 10.9434 118.21 11.3438 118.21 11.8057C118.179 11.9597 118.148 12.2061 118.056 12.4833Z" fill="black"/>
    <path d="M134.472 13.3767C134.379 13.4999 134.286 13.6231 134.163 13.7463C134.04 13.8695 133.947 13.9619 133.824 14.0543C133.7 14.1466 133.577 14.1774 133.453 14.1774C133.33 14.1774 133.237 14.1466 133.145 14.0543C133.052 13.9619 133.021 13.8695 133.021 13.7463C133.021 13.6539 133.052 13.5615 133.083 13.4691L135.428 4.50715C135.521 4.22998 135.552 4.0144 135.552 3.79882C135.552 3.46005 135.49 3.12128 135.366 2.81331C135.243 2.50534 135.089 2.19737 134.873 1.95099C134.657 1.70462 134.379 1.48904 134.101 1.36585C133.793 1.21186 133.484 1.15027 133.114 1.15027C132.651 1.15027 132.25 1.24266 131.88 1.39665C131.509 1.55063 131.17 1.76621 130.83 2.01259C130.491 2.25896 130.244 2.56693 129.966 2.9057C129.72 3.24447 129.473 3.61404 129.257 3.9528L130.09 4.41476C130.121 4.35317 130.182 4.26078 130.244 4.13759C130.306 4.0144 130.398 3.92201 130.491 3.79882C130.584 3.70643 130.676 3.61404 130.769 3.52165C130.861 3.42925 130.954 3.39846 131.077 3.39846C131.201 3.39846 131.293 3.46005 131.324 3.58324C131.355 3.70643 131.386 3.82962 131.386 3.89121C131.386 4.07599 131.355 4.22998 131.324 4.44556L130.182 8.66476C129.843 8.32599 129.442 8.07962 128.979 7.89483C128.516 7.74085 128.053 7.64846 127.59 7.64846C126.85 7.64846 126.109 7.77165 125.4 8.04882C124.69 8.32599 124.073 8.69556 123.517 9.15751C122.962 9.65027 122.53 10.2046 122.221 10.8514C121.882 11.4981 121.728 12.2372 121.728 13.0379C121.728 13.5307 121.82 14.0235 122.036 14.4546C122.252 14.8858 122.499 15.2861 122.838 15.5941C123.178 15.9021 123.579 16.1793 124.042 16.364C124.505 16.5488 124.968 16.6412 125.492 16.6412C126.202 16.6412 126.912 16.4872 127.56 16.21C128.208 15.9021 128.794 15.5017 129.288 14.9782C129.504 15.3785 129.781 15.7481 130.152 16.0253C130.522 16.3024 130.954 16.4564 131.386 16.4564C131.849 16.4564 132.312 16.3948 132.744 16.2408C133.176 16.0869 133.577 15.9021 133.978 15.6557C134.348 15.4093 134.718 15.1014 135.027 14.7626C135.336 14.4238 135.613 14.0543 135.86 13.6847L134.78 13.0379C134.657 13.1303 134.564 13.2535 134.472 13.3767ZM128.979 13.0072C128.886 13.2843 128.763 13.4999 128.609 13.7155C128.454 13.9311 128.208 14.0235 127.899 14.0235C127.529 14.0235 127.251 13.8695 127.066 13.5615C126.881 13.2535 126.757 12.9456 126.757 12.6068C126.757 12.3296 126.788 12.0216 126.881 11.6829C126.973 11.3441 127.097 11.0361 127.251 10.759C127.405 10.4818 127.621 10.2354 127.868 10.0198C128.115 9.83505 128.424 9.71186 128.732 9.71186C128.948 9.71186 129.133 9.77346 129.318 9.89664C129.473 10.0198 129.596 10.2046 129.627 10.4202L128.979 13.0072Z" fill="black"/>
    <path d="M142.093 8.29474C141.877 8.04837 141.63 7.83279 141.322 7.7096C141.013 7.55561 140.705 7.49402 140.334 7.49402C139.872 7.49402 139.44 7.58641 139.069 7.7404C138.699 7.89438 138.36 8.10996 138.051 8.35634C137.742 8.60271 137.465 8.91069 137.218 9.24945C136.971 9.58822 136.724 9.92699 136.477 10.2966L137.341 10.8201C137.372 10.7585 137.434 10.6661 137.496 10.5737C137.557 10.4813 137.619 10.3889 137.712 10.2658C137.804 10.1734 137.897 10.081 137.958 10.0194C138.051 9.95779 138.144 9.92699 138.236 9.92699C138.36 9.92699 138.421 9.98858 138.452 10.081C138.483 10.2042 138.514 10.2966 138.514 10.3581C138.514 10.4813 138.514 10.5737 138.483 10.6969C138.452 10.8201 138.421 10.9125 138.39 11.0357L136.94 16.456H141.137L142.649 10.8509C142.71 10.6353 142.741 10.4197 142.741 10.1426C142.741 9.8038 142.68 9.46503 142.556 9.15706C142.464 8.81829 142.309 8.54112 142.093 8.29474Z" fill="black"/>
    <path d="M150.516 13.1918C150.948 13.1918 151.38 13.1302 151.812 13.0071C152.275 12.8839 152.676 12.6991 153.047 12.4527C153.417 12.2063 153.726 11.8984 153.942 11.5596C154.188 11.19 154.281 10.7897 154.281 10.3277C154.281 9.83495 154.158 9.373 153.911 9.00343C153.664 8.60307 153.355 8.2951 152.954 8.01792C152.584 7.74075 152.152 7.55597 151.689 7.40198C151.226 7.248 150.763 7.1864 150.331 7.1864C149.529 7.1864 148.758 7.30959 148.017 7.52517C147.276 7.74075 146.598 8.11031 146.011 8.63387C145.456 9.12662 144.993 9.71176 144.684 10.3893C144.345 11.0668 144.191 11.7752 144.191 12.5143C144.191 13.2226 144.345 13.8694 144.623 14.4237C144.9 14.9781 145.271 15.44 145.764 15.8096C146.227 16.1792 146.783 16.4563 147.4 16.6411C148.017 16.8259 148.634 16.9183 149.313 16.9183C150.208 16.9183 151.041 16.8259 151.782 16.6103C152.522 16.3947 153.294 16.0868 154.065 15.6864L153.355 14.085C152.923 14.3313 152.491 14.5469 152.059 14.7009C151.627 14.8549 151.164 14.9473 150.671 14.9473C149.992 14.9473 149.467 14.7625 149.097 14.3621C148.727 13.9618 148.511 13.4382 148.48 12.7915C148.788 12.9455 149.128 13.0379 149.467 13.0994C149.838 13.161 150.177 13.1918 150.516 13.1918ZM149.128 11.498C149.035 11.3132 148.974 11.1284 148.974 10.9436C148.974 10.7897 149.004 10.6049 149.035 10.3585C149.097 10.1121 149.159 9.89655 149.251 9.68097C149.344 9.46539 149.467 9.2806 149.622 9.12662C149.776 8.97263 149.961 8.88024 150.177 8.88024C150.424 8.88024 150.578 9.00343 150.64 9.21901C150.732 9.43459 150.763 9.65017 150.763 9.83495C150.763 10.0197 150.732 10.2045 150.702 10.4201C150.671 10.6357 150.609 10.8513 150.516 11.0668C150.424 11.2824 150.3 11.4364 150.146 11.5596C149.992 11.6828 149.807 11.7444 149.56 11.7444C149.375 11.7752 149.22 11.6828 149.128 11.498Z" fill="black"/>
    <path d="M163.817 8.54102C163.632 8.23305 163.354 7.98667 163.015 7.77109C162.675 7.55551 162.305 7.40153 161.873 7.30914C161.441 7.21675 161.009 7.15515 160.546 7.15515C160.021 7.15515 159.466 7.21675 158.941 7.33993C158.417 7.46312 157.923 7.6787 157.491 7.95588C157.059 8.23305 156.72 8.60262 156.442 9.00298C156.164 9.43414 156.041 9.92689 156.041 10.512C156.041 11.0972 156.195 11.5899 156.504 11.9595C156.812 12.3599 157.152 12.6986 157.522 13.0066C157.892 13.3146 158.232 13.5917 158.54 13.8689C158.849 14.1461 159.003 14.4233 159.003 14.7312C159.003 14.9776 158.911 15.1624 158.725 15.3164C158.54 15.4704 158.324 15.532 158.077 15.532C157.861 15.532 157.707 15.4396 157.522 15.2856C157.584 15.1624 157.584 15.0392 157.584 14.8852C157.584 14.5157 157.46 14.2077 157.183 13.8997C156.905 13.6225 156.596 13.4686 156.226 13.4686C155.856 13.4686 155.547 13.5917 155.362 13.8381C155.146 14.0845 155.053 14.3925 155.053 14.762C155.053 15.1316 155.177 15.4704 155.424 15.7167C155.671 15.9631 155.948 16.1787 156.288 16.3327C156.627 16.4867 156.997 16.6099 157.368 16.6715C157.738 16.7331 158.077 16.7638 158.324 16.7638C158.941 16.7638 159.528 16.7331 160.083 16.6407C160.639 16.5483 161.132 16.3943 161.533 16.1787C161.935 15.9631 162.274 15.6552 162.521 15.2856C162.768 14.916 162.891 14.4541 162.891 13.8997C162.891 13.3454 162.737 12.8834 162.397 12.483C162.058 12.0827 161.719 11.7439 161.317 11.4359C160.947 11.128 160.577 10.82 160.237 10.512C159.898 10.2041 159.744 9.8653 159.744 9.49573C159.744 9.18776 159.867 8.91059 160.083 8.69501C160.299 8.47943 160.608 8.35624 160.947 8.35624C161.163 8.35624 161.348 8.41783 161.533 8.51022C161.688 8.63341 161.78 8.7874 161.78 9.03377C161.78 9.18776 161.719 9.34175 161.626 9.46493C161.503 9.58812 161.472 9.77291 161.472 9.98849C161.472 10.2965 161.595 10.5736 161.811 10.82C162.027 11.0664 162.305 11.1896 162.644 11.1896C162.86 11.1896 163.045 11.128 163.231 11.0356C163.416 10.9432 163.539 10.7892 163.663 10.6352C163.786 10.4812 163.879 10.2965 163.909 10.0809C163.971 9.8653 164.002 9.68051 164.002 9.46493C164.125 9.18776 164.033 8.84899 163.817 8.54102Z" fill="black"/>
    <path d="M39 1.30363C37.6423 0.533701 36.9943 1.76559 36.7783 2.04276C36.4697 1.5808 34.9577 0.287324 34.032 2.10435C33.4457 3.45943 35.3589 3.92138 33.6309 5.98479C33.6309 5.98479 37.6423 6.63153 39.3703 3.27464C39.7406 2.53551 39.5863 1.6424 39 1.30363Z" fill="black"/>
    <path d="M143.914 1.30363C142.556 0.533701 141.908 1.76559 141.692 2.04276C141.384 1.5808 139.872 0.287324 138.946 2.10435C138.36 3.45943 140.273 3.92138 138.545 5.98479C138.545 5.98479 142.556 6.63153 144.284 3.27464C144.654 2.53551 144.5 1.6424 143.914 1.30363Z" fill="black"/>
</svg>
